<?xml version="1.0" encoding="UTF-8" standalone="no"?> <!-- Created with Vectornator for iOS (http://vectornator.io/) --><!DOCTYPE svg PUBLIC "-//W3C//DTD SVG 1.1//EN" "http://www.w3.org/Graphics/SVG/1.1/DTD/svg11.dtd">
<svg height="100%" style="fill-rule:nonzero;clip-rule:evenodd;stroke-linecap:round;stroke-linejoin:round;" xmlns:xlink="http://www.w3.org/1999/xlink" xmlns="http://www.w3.org/2000/svg" xml:space="preserve" width="100%" xmlns:vectornator="http://vectornator.io" version="1.1" viewBox="0 0 3370.82 2384.24">
<metadata>
<vectornator:setting key="DimensionsVisible" value="1"/>
<vectornator:setting key="PencilOnly" value="0"/>
<vectornator:setting key="SnapToPoints" value="0"/>
<vectornator:setting key="GuidesVisible" value="1"/>
<vectornator:setting key="RulersVisible" value="1"/>
<vectornator:setting key="OutlineMode" value="0"/>
<vectornator:setting key="SnapToEdges" value="0"/>
<vectornator:setting key="CMYKEnabledKey" value="0"/>
<vectornator:setting key="DisplayWhiteBackground" value="0"/>
<vectornator:setting key="doHistoryDisabled" value="0"/>
<vectornator:setting key="SnapToGuides" value="1"/>
<vectornator:setting key="TimeLapseWatermarkDisabled" value="0"/>
<vectornator:setting key="DynamicGuides" value="0"/>
<vectornator:setting key="IsolateActiveLayer" value="0"/>
<vectornator:setting key="Units" value="Millimeters"/>
<vectornator:setting key="SnapToGrid" value="0"/>
</metadata>
<defs/>
<g id="Layer 1" vectornator:layerName="Layer 1">
<g opacity="1">
<path d="M3320.09+2059.37L3183.25+2059.37L3183.25+260.224C3183.25+121.291+3077.83+8.24587+2948.28+8.24587L418.67+8.24587C289.117+8.24587+183.705+121.291+183.705+260.224L183.705+2059.37L46.8613+2059.37C26.3292+2059.37+9.66548+2077.21+9.66548+2099.26L9.66548+2135.52C9.66548+2268.03+110.206+2375.85+233.807+2375.85L1466.4+2375.85L1900.55+2375.85L3133.14+2375.85C3256.75+2375.85+3357.29+2268.03+3357.29+2135.52L3357.29+2099.26C3357.29+2077.21+3340.66+2059.37+3320.09+2059.37ZM258.096+260.224C258.096+165.289+330.144+88.0237+418.67+88.0237L2948.28+88.0237C3036.85+88.0237+3108.86+165.289+3108.86+260.224L3108.86+2059.37L1900.55+2059.37L1466.4+2059.37L258.096+2059.37L258.096+260.224ZM233.807+2296.12C152.386+2296.12+85.8797+2226.03+84.0943+2139.15L183.705+2139.15L1466.4+2139.15L1466.4+2296.12L233.807+2296.12ZM1540.79+2296.12L1540.79+2139.15L1826.16+2139.15L1826.16+2296.12L1540.79+2296.12ZM3133.14+2296.12L1900.55+2296.12L1900.55+2139.15L3183.25+2139.15L3282.86+2139.15C3281.04+2226.03+3214.57+2296.12+3133.14+2296.12Z" opacity="1" fill="#ffffff"/>
<path d="M2582.8+1552.03L2487.43+1552.03L2487.43+1449.75C2487.43+1427.69+2470.8+1409.86+2450.23+1409.86C2429.66+1409.86+2413.03+1427.69+2413.03+1449.75L2413.03+1552.03L2317.63+1552.03C2297.06+1552.03+2280.43+1569.86+2280.43+1591.92C2280.43+1613.98+2297.06+1631.81+2317.63+1631.81L2413.03+1631.81L2413.03+1734.08C2413.03+1756.14+2429.66+1773.97+2450.23+1773.97C2470.8+1773.97+2487.43+1756.14+2487.43+1734.08L2487.43+1631.81L2582.8+1631.81C2603.37+1631.81+2619.99+1613.98+2619.99+1591.92C2619.99+1569.86+2603.33+1552.03+2582.8+1552.03Z" opacity="1" fill="#ffffff"/>
<path d="M1946.38+319.26L2875.3+319.26C2892.67+319.26+2906.77+334.378+2906.77+353.006L2906.77+1859.93C2906.77+1881.99+2923.4+1899.82+2943.97+1899.82C2964.54+1899.82+2981.16+1881.99+2981.16+1859.93L2981.16+353.006C2981.16+290.42+2933.7+239.482+2875.3+239.482L1946.38+239.482C1925.81+239.482+1909.18+257.352+1909.18+279.371C1909.18+301.39+1925.84+319.26+1946.38+319.26Z" opacity="1" fill="#ffffff"/>
<path d="M1457.77+279.371C1457.77+257.352+1441.11+239.482+1420.58+239.482L491.649+239.482C433.288+239.482+385.789+290.38+385.789+353.006L385.789+1859.93C385.789+1881.99+402.453+1899.82+422.985+1899.82C443.517+1899.82+460.181+1881.99+460.181+1859.93L460.181+353.006C460.181+334.418+474.278+319.26+491.649+319.26L1420.58+319.26C1441.11+319.26+1457.77+301.39+1457.77+279.371Z" opacity="1" fill="#ffffff"/>
<path d="M1647.43+319.26L1719.52+319.26C1740.05+319.26+1756.71+301.39+1756.71+279.371C1756.71+257.352+1740.05+239.482+1719.52+239.482L1647.43+239.482C1626.9+239.482+1610.24+257.352+1610.24+279.371C1610.24+301.39+1626.9+319.26+1647.43+319.26Z" opacity="1" fill="#ffffff"/>
<path d="M1041.89+1562.4L992.973+1527.42C1006.85+1506.31+1015.14+1480.71+1015.14+1452.98L1015.14+1372.09C1015.14+1300.53+960.873+1242.29+894.107+1242.29L881.795+1242.29C815.066+1242.29+760.76+1300.53+760.76+1372.09L760.76+1452.98C760.76+1480.71+769.055+1506.27+782.892+1527.38L733.942+1562.44C701.098+1586.01+681.459+1625.38+681.459+1667.83L681.459+1791.92C681.459+1813.98+698.122+1831.81+718.654+1831.81L1057.25+1831.81C1077.78+1831.81+1094.44+1813.98+1094.44+1791.92L1094.44+1667.83C1094.44+1625.38+1074.8+1586.01+1041.89+1562.4ZM835.152+1372.09C835.152+1344.53+856.093+1322.07+881.795+1322.07L894.107+1322.07C919.809+1322.07+940.751+1344.53+940.751+1372.09L940.751+1452.98C940.751+1480.51+919.809+1502.96+894.107+1502.96L881.795+1502.96C856.093+1502.96+835.152+1480.51+835.152+1452.98L835.152+1372.09ZM1020.05+1752.03L755.85+1752.03L755.85+1667.83C755.85+1652.07+763.141+1637.51+775.304+1628.77L847.724+1576.88C858.622+1580.35+869.893+1582.74+881.795+1582.74L894.107+1582.74C905.972+1582.74+917.206+1580.35+928.067+1576.92L1000.56+1628.77C1012.76+1637.55+1020.05+1652.15+1020.05+1667.83C1020.05+1667.83+1020.05+1752.03+1020.05+1752.03Z" opacity="1" fill="#ffffff"/>
<path d="M1615.18+1791.92L1615.18+1667.83C1615.18+1625.42+1595.55+1586.01+1562.63+1562.4L1513.71+1527.42C1527.59+1506.31+1535.88+1480.71+1535.88+1452.98L1535.88+1372.09C1535.88+1300.53+1481.61+1242.29+1414.85+1242.29L1402.54+1242.29C1335.81+1242.29+1281.5+1300.53+1281.5+1372.09L1281.5+1452.98C1281.5+1480.71+1289.8+1506.27+1303.63+1527.38L1254.68+1562.44C1221.84+1586.01+1202.2+1625.38+1202.2+1667.83L1202.2+1791.92C1202.2+1813.98+1218.86+1831.81+1239.4+1831.81L1577.99+1831.81C1598.52+1831.81+1615.18+1813.98+1615.18+1791.92ZM1355.89+1372.09C1355.89+1344.53+1376.83+1322.07+1402.54+1322.07L1414.85+1322.07C1440.55+1322.07+1461.49+1344.53+1461.49+1372.09L1461.49+1452.98C1461.49+1480.51+1440.55+1502.96+1414.85+1502.96L1402.54+1502.96C1376.83+1502.96+1355.89+1480.51+1355.89+1452.98L1355.89+1372.09ZM1540.79+1752.03L1276.59+1752.03L1276.59+1667.83C1276.59+1652.07+1283.88+1637.51+1296.04+1628.77L1368.47+1576.88C1379.36+1580.35+1390.63+1582.74+1402.54+1582.74L1414.85+1582.74C1426.71+1582.74+1437.95+1580.35+1448.81+1576.92L1521.3+1628.77C1533.5+1637.55+1540.79+1652.15+1540.79+1667.83C1540.79+1667.83+1540.79+1752.03+1540.79+1752.03Z" opacity="1" fill="#ec5242"/>
<path d="M2083.33+1562.4L2034.46+1527.42C2048.33+1506.31+2056.62+1480.71+2056.62+1452.98L2056.62+1372.09C2056.62+1300.53+2002.32+1242.29+1935.59+1242.29L1923.28+1242.29C1856.55+1242.29+1802.24+1300.53+1802.24+1372.09L1802.24+1452.98C1802.24+1480.71+1810.54+1506.27+1824.37+1527.38L1775.39+1562.48C1742.54+1586.09+1722.94+1625.46+1722.94+1667.87L1722.94+1791.96C1722.94+1814.02+1739.57+1831.85+1760.14+1831.85L2098.73+1831.85C2119.3+1831.85+2135.93+1814.02+2135.93+1791.96L2135.93+1667.87C2135.93+1625.38+2116.29+1586.01+2083.33+1562.4ZM1876.63+1372.09C1876.63+1344.53+1897.58+1322.07+1923.28+1322.07L1935.59+1322.07C1961.29+1322.07+1982.23+1344.53+1982.23+1372.09L1982.23+1452.98C1982.23+1480.51+1961.29+1502.96+1935.59+1502.96L1923.28+1502.96C1897.58+1502.96+1876.63+1480.51+1876.63+1452.98L1876.63+1372.09ZM2061.53+1752.03L1797.33+1752.03L1797.33+1667.83C1797.33+1652.11+1804.59+1637.51+1816.75+1628.77L1889.17+1576.88C1900.07+1580.35+1911.34+1582.78+1923.24+1582.78L1935.55+1582.78C1947.42+1582.78+1958.65+1580.39+1969.51+1576.96L2041.97+1628.85C2054.17+1637.59+2061.46+1652.19+2061.46+1667.9L2061.46+1752.03L2061.53+1752.03Z" opacity="1" fill="#ffffff"/>
<path d="M1041.89+844.438L992.973+809.415C1006.85+788.314+1015.18+762.705+1015.18+734.943L1015.18+654.088C1015.18+582.527+960.911+524.289+894.144+524.289L881.832+524.289C815.103+524.289+760.797+582.487+760.797+654.088L760.797+734.943C760.797+762.665+769.092+788.234+782.929+809.335L733.979+844.398C701.135+867.972+681.496+907.343+681.496+949.744L681.496+1073.88C681.496+1095.9+698.16+1113.77+718.692+1113.77L1057.28+1113.77C1077.82+1113.77+1094.48+1095.9+1094.48+1073.88L1094.48+949.784C1094.44+907.382+1074.8+867.972+1041.89+844.438ZM835.152+654.088C835.152+626.524+856.093+604.067+881.795+604.067L894.107+604.067C919.809+604.067+940.751+626.524+940.751+654.088L940.751+734.943C940.751+762.506+919.809+784.963+894.107+784.963L881.795+784.963C856.093+784.963+835.152+762.506+835.152+734.943L835.152+654.088ZM1020.05+1034.07L755.85+1034.07L755.85+949.824C755.85+934.108+763.141+919.509+775.304+910.773L847.724+858.878C858.585+862.348+869.893+864.741+881.795+864.741L894.107+864.741C905.972+864.741+917.243+862.308+928.104+858.878L1000.6+910.773C1012.8+919.509+1020.05+934.108+1020.05+949.824C1020.05+949.824+1020.05+1034.07+1020.05+1034.07Z" opacity="1" fill="#ec5242"/>
<path d="M1402.54+524.289C1335.81+524.289+1281.5+582.487+1281.5+654.088L1281.5+734.943C1281.5+762.665+1289.8+788.234+1303.63+809.335L1254.68+844.398C1221.84+867.972+1202.2+907.343+1202.2+949.745L1202.2+1073.88C1202.2+1095.9+1218.86+1113.77+1239.4+1113.77L1577.99+1113.77C1598.52+1113.77+1615.18+1095.9+1615.18+1073.88L1615.18+949.784C1615.18+907.343+1595.55+867.932+1562.63+844.398L1513.71+809.375C1527.59+788.274+1535.92+762.665+1535.92+734.903L1535.92+654.048C1535.92+582.487+1481.65+524.249+1414.89+524.249L1402.54+524.249L1402.54+524.289ZM1540.79+949.824L1540.79+1034.03L1276.59+1034.03L1276.59+949.784C1276.59+934.068+1283.88+919.469+1296.04+910.733L1368.47+858.838C1379.33+862.308+1390.63+864.701+1402.54+864.701L1414.85+864.701C1426.71+864.701+1437.98+862.268+1448.85+858.838L1521.34+910.733C1533.5+919.509+1540.79+934.108+1540.79+949.824ZM1461.49+654.088L1461.49+734.943C1461.49+762.506+1440.55+784.963+1414.85+784.963L1402.54+784.963C1376.83+784.963+1355.89+762.506+1355.89+734.943L1355.89+654.088C1355.89+626.524+1376.83+604.067+1402.54+604.067L1414.85+604.067C1440.59+604.067+1461.49+626.524+1461.49+654.088Z" opacity="1" fill="#ffffff"/>
<path d="M1722.98+949.784L1722.98+1073.92C1722.98+1095.94+1739.6+1113.81+1760.17+1113.81L2098.77+1113.81C2119.34+1113.81+2135.96+1095.94+2135.96+1073.92L2135.96+949.824C2135.96+907.382+2116.32+867.972+2083.41+844.438L2034.49+809.415C2048.37+788.314+2056.7+762.705+2056.7+734.942L2056.7+654.088C2056.7+582.527+2002.39+524.289+1935.66+524.289L1923.35+524.289C1856.62+524.289+1802.32+582.487+1802.32+654.088L1802.32+734.942C1802.32+762.665+1810.61+788.234+1824.45+809.335L1775.46+844.438C1742.58+868.052+1722.98+907.422+1722.98+949.784ZM1876.63+654.088C1876.63+626.524+1897.58+604.067+1923.28+604.067L1935.59+604.067C1961.29+604.067+1982.23+626.524+1982.23+654.088L1982.23+734.943C1982.23+762.506+1961.29+784.963+1935.59+784.963L1923.28+784.963C1897.58+784.963+1876.63+762.506+1876.63+734.943L1876.63+654.088ZM1797.37+949.784C1797.37+934.068+1804.62+919.469+1816.79+910.733L1889.21+858.838C1900.1+862.308+1911.37+864.741+1923.28+864.741L1935.59+864.741C1947.45+864.741+1958.73+862.308+1969.55+858.877L2042.04+910.773C2054.24+919.509+2061.5+934.068+2061.5+949.824L2061.5+1034.03L1797.3+1034.03L1797.3+949.784L1797.37+949.784Z" opacity="1" fill="#ec5242"/>
<path d="M2604.11+844.438L2555.2+809.415C2569.07+788.314+2577.4+762.705+2577.4+734.943L2577.4+654.088C2577.4+582.527+2523.1+524.289+2456.37+524.289L2444.06+524.289C2377.33+524.289+2323.02+582.487+2323.02+654.088L2323.02+734.943C2323.02+762.665+2331.32+788.234+2345.15+809.335L2296.17+844.438C2263.32+868.012+2243.72+907.422+2243.72+949.784L2243.72+1073.92C2243.72+1095.94+2260.35+1113.81+2280.91+1113.81L2619.51+1113.81C2640.08+1113.81+2656.7+1095.94+2656.7+1073.92L2656.7+949.824C2656.67+907.382+2637.03+867.972+2604.11+844.438ZM2397.38+654.088C2397.38+626.524+2418.32+604.067+2444.02+604.067L2456.33+604.067C2482.03+604.067+2502.97+626.524+2502.97+654.088L2502.97+734.943C2502.97+762.506+2482.03+784.963+2456.33+784.963L2444.02+784.963C2418.32+784.963+2397.38+762.506+2397.38+734.943L2397.38+654.088ZM2582.28+1034.07L2318.07+1034.07L2318.07+949.824C2318.07+934.108+2325.33+919.509+2337.49+910.773L2409.91+858.878C2420.81+862.348+2432.08+864.781+2443.98+864.781L2456.29+864.781C2468.16+864.781+2479.43+862.348+2490.25+858.917L2562.75+910.813C2574.95+919.549+2582.2+934.108+2582.2+949.864L2582.2+1034.07L2582.28+1034.07Z" opacity="1" fill="#ffffff"/>
</g>
</g>
</svg>
