<svg id="Camada_1" data-name="Camada 1" xmlns="http://www.w3.org/2000/svg" viewBox="0 0 371.07 167.28"><defs><style>.cls-1{fill:#929497;}.cls-2{fill:#00b7b9;}.cls-3{fill:#ee3468;}.cls-4{fill:#863b6c;}</style></defs><title>Logo_Lisbon Web Summit</title><path class="cls-1" d="M81.64,173.1c-1.24-.5-2.58-.52-3.87-.92a17.93,17.93,0,0,1-10.39-8,22.09,22.09,0,0,1-2.81-9.11,35.94,35.94,0,0,1-.18-4.14c0-11.91,0-23.83,0-35.74,0-.89.16-1.19,1.14-1.18q7.78.08,15.58,0c1,0,1.32.16,1.32,1.26-.06,10.87-.09,21.75,0,32.62,0,2.89.57,5.76,2.93,7.85a6.8,6.8,0,0,0,4,1.7c4.69.4,8.64-1.42,12.18-4.34a1.76,1.76,0,0,0,.54-1.59c0-12,0-24,0-36,0-1.22.33-1.54,1.54-1.53,5.23.07,10.47,0,15.7,0,.85,0,1,.22,1,1q0,28.36,0,56.72c0,.83-.17,1.07-1,1.06-5.36,0-10.71,0-16.07,0-.71,0-1-.13-.93-.9.06-1.74,0-3.49,0-5.38A28.29,28.29,0,0,1,92.9,172a14.15,14.15,0,0,1-4.2.86c-.21,0-.49-.1-.58.24Z" transform="translate(-6.02 -5.81)"/><path class="cls-1" d="M26,173.1c-1-.54-2-.29-3.05-.43a63.69,63.69,0,0,1-12.45-3.09c-2.07-.72-2.64-1.74-2.54-3.85.19-4,0-8.08.06-12.11,0-.3-.18-.71.16-.87s.63,0,1,.22a53.92,53.92,0,0,0,11.55,4.59,39.27,39.27,0,0,0,12.09,1.37,6,6,0,0,0,4.43-1.74c1.69-1.83,1.1-3.86-.76-5a15.37,15.37,0,0,0-5.39-1.63,87.54,87.54,0,0,1-10.95-2.48,26.81,26.81,0,0,1-7.73-3.54c-2.56-1.83-4.69-4-5.61-7.1a18.66,18.66,0,0,1-.28-9.53c1.41-6.22,5.5-10,11.18-12.45a33.45,33.45,0,0,1,10-2.39,51.56,51.56,0,0,1,9.78.22,63.57,63.57,0,0,1,11.14,2.25c1.18.31,2.26,1,3.43,1.35a1.76,1.76,0,0,1,1.35,2c-.08,4.4,0,8.8,0,13.2,0,.85,0,1.24-1,.67a50.91,50.91,0,0,0-13.6-5,26.86,26.86,0,0,0-9.15-.72c-1.91.22-3.92.55-4.93,2.63a3,3,0,0,0,2,4.06A61,61,0,0,0,35,135.67c5.4,1.14,10.78,2.3,15.46,5.5a13.51,13.51,0,0,1,6.09,10.61,18.56,18.56,0,0,1-1.72,9.7c-2.13,4.53-5.84,7.33-10.35,9.21a27.19,27.19,0,0,1-9.32,2.19c-.08,0-.15.14-.23.22Z" transform="translate(-6.02 -5.81)"/><path class="cls-1" d="M361,173.1a45.52,45.52,0,0,1-4.54-1.1c-5.2-1.81-9-5.07-10.83-10.45a28.84,28.84,0,0,1-1.45-7.76c-.45-7.89-.08-15.79-.19-23.69,0-.71-.14-.95-.9-.93-2.56.05-5.12,0-7.68,0-.6,0-.81-.13-.81-.78,0-4.44,0-8.88,0-13.31,0-.91.38-1.06,1.16-1,2.43,0,4.87,0,7.31,0,.74,0,.93-.17.92-.92,0-4.27,0-8.55,0-12.83,0-.75.05-1,1-1.21,2.93-.58,5.89-1,8.82-1.53,2.42-.48,4.9-.83,7.34-1.28.75-.14,1.1,0,1.09,1-.05,5.24,0,10.48,0,15.71,0,.9.21,1.12,1.1,1.11,4.6,0,9.19,0,13.79,0v15.12c-4.6,0-9.19,0-13.79,0-.9,0-1.11.21-1.1,1.11q.06,9.3,0,18.59a14.7,14.7,0,0,0,.53,4.3c.86,2.9,2.33,4.32,4.92,4.56a15,15,0,0,0,5.78-.77c1.25-.38,2.34-1.18,3.66-1.37v14.64a38.1,38.1,0,0,1-5.57,2.09,39.3,39.3,0,0,0-4,.79Z" transform="translate(-6.02 -5.81)"/><path class="cls-1" d="M147.83,118.91a26.43,26.43,0,0,1,10.65-5.44,26.05,26.05,0,0,1,10.88-.18A21.17,21.17,0,0,1,178,117a16.52,16.52,0,0,1,3.77,4,31.13,31.13,0,0,1,14.41-7.53,27.71,27.71,0,0,1,10.89-.13,20.25,20.25,0,0,1,10.38,5.31,13.77,13.77,0,0,1,1.61,2c.29.4.46.47.91.12a42.85,42.85,0,0,1,7.73-4.88,31.77,31.77,0,0,1,9.15-2.77,24,24,0,0,1,14.62,2.44,13.31,13.31,0,0,1,5.36,4.61c.63,1,1,.52,1.5.09a28.12,28.12,0,0,1,6.26-4.2,28.87,28.87,0,0,1,9.68-3,26.33,26.33,0,0,1,10.17.55A18,18,0,0,1,296.26,123a19.52,19.52,0,0,1,2.16,8.12c.59,13.65.1,27.31.27,41,0,.59-.1.83-.77.82-6,0-11.91,0-17.87,0-1,0-.79-.59-.79-1.14,0-11.32,0-22.64-.06-34,0-1.88,0-3.87-1.12-5.64-1.8-2.84-4.76-3.48-7.8-3.07a18.59,18.59,0,0,0-8.35,3.71,1.82,1.82,0,0,0-.92,1.64c0,4.52-.17,9,.06,13.55.39,7.9,0,15.8.21,23.7,0,.86-.11,1.22-1.12,1.2-5.11-.06-10.23,0-15.35,0-.95,0-1.07-.29-1.07-1.13,0-10.84,0-21.67,0-32.51,0-3-.57-5.88-2.93-8.1s-4.91-2.44-7.74-2.11c-3.33.38-6,2.3-8.7,4.08-.57.38-.52.92-.52,1.48q0,18.35,0,36.7c0,1.57,0,1.57-1.56,1.57-5,0-9.92,0-14.87,0-.9,0-1.11-.21-1.1-1.11q0-16.25,0-32.5a10.71,10.71,0,0,0-3.26-8.12,8.34,8.34,0,0,0-4.58-2,14.51,14.51,0,0,0-9.54,1.79c-1.28.7-2.46,1.6-3.68,2.42-.41.28-.27.72-.27,1.1,0,2.5.16,5,.19,7.5.11,9.91,0,19.83.06,29.74,0,.9-.16,1.2-1.14,1.19q-7.67-.07-15.34,0c-1,0-1.32-.17-1.31-1.27.05-11.43.1-22.87,0-34.3a8,8,0,0,0-5.8-8,11.77,11.77,0,0,0-8.52.93,36.65,36.65,0,0,0-4.28,2.52,2,2,0,0,0-1,1.9c0,12.32,0,24.63,0,36.95,0,1.06-.25,1.3-1.29,1.28-5.16-.06-10.31,0-15.47,0-.85,0-1-.22-1-1q0-28.38,0-56.74c0-.85.21-1,1-1q7.86.06,15.71,0c.85,0,1.09.21,1,1C147.78,116.3,147.83,117.5,147.83,118.91Z" transform="translate(-6.02 -5.81)"/><path class="cls-2" d="M277.07,26.58l5.46-9.3.72-1.2Q307.58,58.17,331.74,100a1.61,1.61,0,0,1-1.23.22H235.92c-.4,0-.8,0-1.2,0,.23-.42.43-.85.67-1.27q11.73-20.31,23.47-40.62c2.06-3.59,4.26-7.12,6.15-10.81,1.55-2.65,3.12-5.28,4.65-7.94C272.15,35.22,274.6,30.9,277.07,26.58Z" transform="translate(-6.02 -5.81)"/><path class="cls-3" d="M265,47.47c-1.89,3.69-4.09,7.22-6.15,10.81Q247.15,78.6,235.39,98.9c-.24.42-.44.85-.67,1.27l-35.47,0c-1.42,0-.63-.73-.38-1.17q5.5-9.56,11-19.09,12.73-22.05,25.48-44.1,5.38-9.34,10.79-18.68c.61-1.06.71-1,1.34,0l4.79,8.31c.17.31.28.68.7.75a1.83,1.83,0,0,0,.32,1Q259.17,37.37,265,47.47Z" transform="translate(-6.02 -5.81)"/><path class="cls-1" d="M29,90.69c.82-2.48,1.57-4.77,2.35-7.06,1.32-3.89,2.62-7.79,4-11.65,1.69-4.7,3.17-9.47,4.92-14.15,1.1-2.94,2-6,3-9,.28-.86.66-1.47,1.71-1.27a3.83,3.83,0,0,0,.83,0c2.7,0,2.72.09,3.48,2.72.66,2.32,1.5,4.6,2.27,6.89,1.06,3.21,2.2,6.39,3.27,9.59,1,2.94,2.07,5.87,3.07,8.81q2.43,7.16,4.83,14.3a1.82,1.82,0,0,0,.3.47c.67-2,1.36-4.11,2-6.19,1.45-4.46,2.88-8.93,4.35-13.38.74-2.22,1.49-4.44,2.18-6.68.87-2.82,1.9-5.6,2.84-8.41.82-2.44,1.61-4.89,2.41-7.33.15-.46.29-.83.93-.81,1.71,0,3.43.06,5.15,0,.94,0,.78.52.62,1-1.67,5-3.31,10-5.06,14.94-1.69,4.78-3.2,9.63-4.91,14.4-1.62,4.52-2.87,9.17-4.5,13.68-.87,2.42-1.55,4.91-2.5,7.31-.22.57-.42.75-1,.74-1.68,0-3.35,0-5,0-.55,0-.69-.16-.85-.66-.9-2.86-1.82-5.72-2.86-8.51-1.61-4.36-3-8.8-4.58-13.16-1.83-5-3.46-10.11-5.17-15.16C46.75,61.11,46.4,60,46,58.85a31.93,31.93,0,0,0-1.47,4c-.95,2.46-1.63,5-2.48,7.54C41,73.64,39.83,76.82,38.72,80c-1.55,4.5-3.09,9-4.67,13.49a44.36,44.36,0,0,0-1.58,4.94,1.41,1.41,0,0,1-1.72,1.27,36.35,36.35,0,0,0-4.55,0A.87.87,0,0,1,25.15,99c-1.36-4.28-2.79-8.54-4.25-12.79-1.26-3.66-2.45-7.36-3.74-11C15.68,71,14.31,66.79,12.9,62.6c-1.6-4.76-3.16-9.54-4.79-14.29-.19-.53-.06-.71.51-.71,1.83,0,3.67,0,5.51,0,1.24,0,1,1.15,1.28,1.78.93,2.48,1.7,5,2.53,7.53s1.62,5,2.49,7.55c1.05,3,2.08,6.11,3.07,9.17,1.57,4.9,3.24,9.77,4.84,14.66C28.57,89,28.78,89.75,29,90.69Z" transform="translate(-6.02 -5.81)"/><path class="cls-1" d="M154.31,52.92a25.57,25.57,0,0,1,6.46-3.61,28.78,28.78,0,0,1,6-1.49A23.58,23.58,0,0,1,178,49a22.65,22.65,0,0,1,11.12,8.3,24.42,24.42,0,0,1,4.47,11,31.52,31.52,0,0,1-.6,12.52,25.8,25.8,0,0,1-7.81,13A23.5,23.5,0,0,1,174,99.36a28.3,28.3,0,0,1-10.78.15,35.17,35.17,0,0,1-9-2.79.86.86,0,0,0-.94.12c-1.6.84-3.19,1.72-4.76,2.62-.66.38-.95.31-.89-.5,0-.16,0-.32,0-.48q0-37.89,0-75.78c0-1.1.3-1.33,1.31-1.27a38.69,38.69,0,0,0,4.44,0c.87-.05,1,.25,1,1.06C154.3,32.57,154.31,42.64,154.31,52.92Zm0,20.9c0,5.9,0,10.82,0,15.73a1.63,1.63,0,0,0,1.24,1.73,38.68,38.68,0,0,0,10,2.7,22.08,22.08,0,0,0,8.79-.75c8.08-2.47,12.3-9.66,13-17a22.8,22.8,0,0,0-1.79-11.93,17.56,17.56,0,0,0-10.16-9.69,20.74,20.74,0,0,0-13.63.24,24.41,24.41,0,0,0-7,4.25c-.24.2-.59.37-.56.81C154.47,64.84,154.21,69.83,154.31,73.82Z" transform="translate(-6.02 -5.81)"/><path class="cls-1" d="M308,143.47c0-9.44,0-18.88,0-28.31,0-.89.19-1.12,1.1-1.11,5.31,0,10.63,0,15.94,0,1,0,1.23.28,1.23,1.23q0,28.31,0,56.61c0,.79-.19,1-1,1-5.4,0-10.79,0-16.19,0-.9,0-1.11-.21-1.1-1.11C308,162.34,308,152.9,308,143.47Z" transform="translate(-6.02 -5.81)"/><path class="cls-1" d="M115.61,75.68c-6.35,0-12.7,0-19.06,0-.86,0-1.14.24-1,1.06.85,4.64,2.58,8.84,6.1,12.12a19.09,19.09,0,0,0,10,4.82A25.84,25.84,0,0,0,127,91.75a30.12,30.12,0,0,0,5.31-3.06c.23-.17.43-.4.73-.25s.17.48.17.73c0,1.72,0,3.44,0,5.16a1.24,1.24,0,0,1-.68,1.26A34.72,34.72,0,0,1,121,99.48a33.06,33.06,0,0,1-7.08.41A27.8,27.8,0,0,1,99,94.67a24.27,24.27,0,0,1-8.65-12.12,26,26,0,0,1-1.14-5.94,48.55,48.55,0,0,1,.08-6.72A15.79,15.79,0,0,1,90,66.36a25.27,25.27,0,0,1,5.71-10.71,23.86,23.86,0,0,1,11.46-7.12A23.59,23.59,0,0,1,119,48.19a21.58,21.58,0,0,1,11.81,7.06,20.54,20.54,0,0,1,4,7.6A32.29,32.29,0,0,1,136.11,73c0,.8-.31,1.54-.29,2.34s-.6.36-.91.37c-3.4,0-6.79,0-10.19,0Zm-3-5.52c5.27,0,10.54,0,15.8,0,1,0,1.33-.29,1.18-1.25a25.21,25.21,0,0,0-.72-4.12,15.11,15.11,0,0,0-5.35-8.1,16.41,16.41,0,0,0-13.06-2.88,16.73,16.73,0,0,0-11.09,7,21.69,21.69,0,0,0-3.41,8c-.29,1.25,0,1.33,1.08,1.32C102.25,70.14,107.44,70.16,112.63,70.16Z" transform="translate(-6.02 -5.81)"/><path class="cls-4" d="M265,47.47q-5.85-10.09-11.69-20.18a1.83,1.83,0,0,1-.32-1L264.82,6a1,1,0,0,1,.17-.19c.45.25.58.75.81,1.15q5.29,9.25,10.57,18.51c.22.38.47.74.7,1.11-2.47,4.32-4.92,8.64-7.41,13C268.13,42.19,266.56,44.82,265,47.47Z" transform="translate(-6.02 -5.81)"/></svg>